<?xml version="1.0" encoding="UTF-8" standalone="no"?>
<svg
   xmlns:osb="http://www.openswatchbook.org/uri/2009/osb"
   xmlns:dc="http://purl.org/dc/elements/1.1/"
   xmlns:cc="http://creativecommons.org/ns#"
   xmlns:rdf="http://www.w3.org/1999/02/22-rdf-syntax-ns#"
   xmlns:svg="http://www.w3.org/2000/svg"
   xmlns="http://www.w3.org/2000/svg"
   xmlns:sodipodi="http://sodipodi.sourceforge.net/DTD/sodipodi-0.dtd"
   xmlns:inkscape="http://www.inkscape.org/namespaces/inkscape"
   id="svg8"
   version="1.1"
   viewBox="0 0 25.399999 25.400001"
   height="96"
   width="96"
   sodipodi:docname="phone.svg"
   inkscape:version="0.92.3 (2405546, 2018-03-11)">
  <sodipodi:namedview
     pagecolor="#ffffff"
     bordercolor="#666666"
     borderopacity="1"
     objecttolerance="10"
     gridtolerance="10"
     guidetolerance="10"
     inkscape:pageopacity="0"
     inkscape:pageshadow="2"
     inkscape:window-width="640"
     inkscape:window-height="480"
     id="namedview7"
     showgrid="false"
     inkscape:zoom="2.59375"
     inkscape:cx="-23.325301"
     inkscape:cy="48"
     inkscape:current-layer="svg8" />
  <defs
     id="defs2">
    <linearGradient
       id="linearGradient816"
       osb:paint="solid">
      <stop
         style="stop-color:#000000;stop-opacity:1;"
         offset="0"
         id="stop814" />
    </linearGradient>
  </defs>
  <metadata
     id="metadata5">
    <rdf:RDF>
      <cc:Work
         rdf:about="">
        <dc:format>image/svg+xml</dc:format>
        <dc:type
           rdf:resource="http://purl.org/dc/dcmitype/StillImage" />
        <dc:title />
      </cc:Work>
    </rdf:RDF>
  </metadata>
  <g
     transform="translate(0,-271.59998)"
     id="layer1"
     style="stroke:#4d4d4d;stroke-opacity:1">
    <path
       id="path858"
       d="m 17.639234,294.65569 c -1.414221,-0.26428 -3.567918,-1.11004 -5.315955,-2.0876 -2.145345,-1.19974 -3.8988839,-2.56575 -5.5252441,-4.30417 -2.0792309,-2.22249 -3.4806587,-4.55294 -4.5895059,-7.63195 -0.2017644,-0.56025 -0.2031919,-0.56789 -0.1986427,-1.0635 0.00573,-0.62429 0.099727,-1.00681 0.4138964,-1.68436 0.2838667,-0.6122 0.6465429,-1.18892 1.1382401,-1.81 0.6639269,-0.83862 1.8283451,-2.00048 2.1403955,-2.13569 0.1759888,-0.0763 0.4783254,-0.0545 0.6699472,0.0483 0.3762548,0.20177 2.6803675,2.9729 3.5650126,4.28759 0.2575439,0.38275 0.1783799,0.77889 -0.2195841,1.09883 -0.3284368,0.26404 -1.2189563,1.16976 -1.5577986,1.5844 -0.4940945,0.60461 -0.5666602,0.72523 -0.5666602,0.94194 0,0.23834 0.057371,0.35538 0.4532043,0.92461 1.9508047,2.80533 4.2362715,4.92288 6.6933025,6.20154 0.723944,0.37675 0.852449,0.37833 1.230724,0.0151 0.299802,-0.28784 0.676469,-0.80128 1.289586,-1.75784 0.39918,-0.62278 0.482764,-0.72802 0.641536,-0.80772 0.199096,-0.0999 0.354069,-0.11386 0.566072,-0.0508 0.07553,0.0225 0.762918,0.46533 1.527538,0.98416 0.76462,0.51882 1.776358,1.19628 2.248306,1.50546 0.471948,0.30918 0.902896,0.60371 0.957662,0.6545 0.18798,0.17435 0.268235,0.52577 0.176941,0.77478 -0.02058,0.0561 -0.183918,0.30646 -0.362972,0.55628 -1.121794,1.56515 -2.50482,2.8492 -3.855903,3.57995 -0.372752,0.20161 -0.396923,0.20834 -0.7953,0.22138 -0.225975,0.007 -0.552135,-0.013 -0.724798,-0.0452 z"
       style="fill:none;stroke-width:1.05833333;stroke:#4d4d4d;stroke-opacity:1;stroke-miterlimit:4;stroke-dasharray:none;stroke-linejoin:round" />
  </g>
</svg>
